<svg width="194" height="46" viewBox="0 0 194 46" fill="none" xmlns="http://www.w3.org/2000/svg">
<rect width="46" height="46" rx="10" fill="#ea580c"/>
<path d="M21 4H26V7.5C26 8.33333 26.4 10.2 28 11C30 12 32 14.5 32.5 16V41.5H28V18.5H25.5V37.3246H21V18.5H18.5V32.5H14V16C14.1667 15 15.2 12.7 18 11.5C18.6667 11.1667 20.2 9.9 21 7.5V4Z" fill="white"/>
<path d="M71.252 35L65.4961 18.3066H65.373C65.4004 18.6803 65.4323 19.1908 65.4688 19.8379C65.5052 20.485 65.5371 21.1777 65.5645 21.916C65.5918 22.6543 65.6055 23.3607 65.6055 24.0352V35H62.625V15.0117H67.2324L72.7695 30.9668H72.8516L78.5801 15.0117H83.1738V35H80.043V23.8711C80.043 23.2604 80.0521 22.5996 80.0703 21.8887C80.0977 21.1777 80.125 20.5033 80.1523 19.8652C80.1888 19.2272 80.2161 18.7168 80.2344 18.334H80.125L74.1504 35H71.252ZM92.1787 19.5781C93.5276 19.5781 94.6852 19.8561 95.6513 20.4121C96.6175 20.9681 97.3603 21.7565 97.8798 22.7773C98.3994 23.7982 98.6591 25.0195 98.6591 26.4414V28.1641H88.5556C88.5921 29.6315 88.984 30.7617 89.7314 31.5547C90.4879 32.3477 91.5452 32.7441 92.9033 32.7441C93.8694 32.7441 94.7353 32.653 95.5009 32.4707C96.2757 32.2793 97.0732 32.0013 97.8935 31.6367V34.248C97.137 34.6035 96.3668 34.8633 95.583 35.0273C94.7991 35.1914 93.8603 35.2734 92.7666 35.2734C91.2809 35.2734 89.9729 34.9863 88.8427 34.4121C87.7216 33.8288 86.8421 32.9629 86.2041 31.8145C85.5752 30.666 85.2607 29.2396 85.2607 27.5352C85.2607 25.8398 85.5478 24.3997 86.122 23.2148C86.6963 22.0299 87.5029 21.1276 88.542 20.5078C89.581 19.888 90.7933 19.5781 92.1787 19.5781ZM92.1787 21.998C91.167 21.998 90.3466 22.3262 89.7177 22.9824C89.0979 23.6387 88.7334 24.6003 88.624 25.8672H95.5146C95.5055 25.1107 95.3779 24.4408 95.1318 23.8574C94.8948 23.2741 94.5302 22.8184 94.038 22.4902C93.555 22.1621 92.9352 21.998 92.1787 21.998ZM108.211 19.5781C109.915 19.5781 111.241 20.0202 112.189 20.9043C113.146 21.7793 113.625 23.1875 113.625 25.1289V35H110.412V25.7305C110.412 24.5547 110.17 23.6751 109.687 23.0918C109.204 22.4993 108.457 22.2031 107.445 22.2031C105.978 22.2031 104.957 22.6543 104.383 23.5566C103.818 24.459 103.535 25.7669 103.535 27.4805V35H100.322V19.8652H102.824L103.275 21.916H103.453C103.781 21.3874 104.187 20.9544 104.67 20.6172C105.162 20.2708 105.709 20.0111 106.31 19.8379C106.921 19.6647 107.555 19.5781 108.211 19.5781ZM129.356 19.8652V35H126.827L126.39 32.9629H126.212C125.893 33.4824 125.487 33.9154 124.995 34.2617C124.503 34.599 123.956 34.8496 123.354 35.0137C122.753 35.1868 122.119 35.2734 121.454 35.2734C120.315 35.2734 119.339 35.082 118.528 34.6992C117.726 34.3073 117.111 33.7057 116.682 32.8945C116.254 32.0833 116.04 31.0352 116.04 29.75V19.8652H119.266V29.1484C119.266 30.3242 119.503 31.2038 119.977 31.7871C120.46 32.3704 121.208 32.6621 122.22 32.6621C123.195 32.6621 123.97 32.4616 124.544 32.0605C125.118 31.6595 125.524 31.0671 125.761 30.2832C126.007 29.4993 126.13 28.5378 126.13 27.3984V19.8652H129.356ZM137.637 32.6758C138.056 32.6758 138.471 32.6393 138.881 32.5664C139.291 32.4844 139.665 32.3887 140.002 32.2793V34.7129C139.646 34.8678 139.186 35 138.621 35.1094C138.056 35.2188 137.468 35.2734 136.857 35.2734C136 35.2734 135.23 35.1322 134.547 34.8496C133.863 34.5579 133.321 34.0612 132.92 33.3594C132.519 32.6576 132.318 31.6868 132.318 30.4473V22.3125H130.254V20.877L132.469 19.7422L133.521 16.502H135.545V19.8652H139.879V22.3125H135.545V30.4062C135.545 31.1719 135.736 31.7415 136.119 32.1152C136.502 32.4889 137.008 32.6758 137.637 32.6758ZM144.331 13.7266V19.0723C144.331 19.6283 144.313 20.1706 144.276 20.6992C144.249 21.2279 144.217 21.638 144.18 21.9297H144.358C144.677 21.401 145.069 20.9681 145.534 20.6309C145.999 20.2845 146.518 20.0247 147.093 19.8516C147.676 19.6784 148.296 19.5918 148.952 19.5918C150.11 19.5918 151.094 19.7878 151.905 20.1797C152.716 20.5625 153.336 21.1595 153.764 21.9707C154.202 22.7819 154.421 23.8346 154.421 25.1289V35H151.208V25.7305C151.208 24.5547 150.966 23.6751 150.483 23.0918C150 22.4993 149.253 22.2031 148.241 22.2031C147.266 22.2031 146.491 22.4082 145.917 22.8184C145.352 23.2194 144.946 23.8164 144.7 24.6094C144.454 25.3932 144.331 26.3503 144.331 27.4805V35H141.118V13.7266H144.331ZM162.988 19.5781C164.337 19.5781 165.495 19.8561 166.461 20.4121C167.427 20.9681 168.17 21.7565 168.689 22.7773C169.209 23.7982 169.469 25.0195 169.469 26.4414V28.1641H159.365C159.401 29.6315 159.793 30.7617 160.541 31.5547C161.297 32.3477 162.355 32.7441 163.713 32.7441C164.679 32.7441 165.545 32.653 166.31 32.4707C167.085 32.2793 167.883 32.0013 168.703 31.6367V34.248C167.946 34.6035 167.176 34.8633 166.392 35.0273C165.608 35.1914 164.67 35.2734 163.576 35.2734C162.09 35.2734 160.782 34.9863 159.652 34.4121C158.531 33.8288 157.651 32.9629 157.013 31.8145C156.385 30.666 156.07 29.2396 156.07 27.5352C156.07 25.8398 156.357 24.3997 156.931 23.2148C157.506 22.0299 158.312 21.1276 159.351 20.5078C160.39 19.888 161.603 19.5781 162.988 19.5781ZM162.988 21.998C161.976 21.998 161.156 22.3262 160.527 22.9824C159.907 23.6387 159.543 24.6003 159.433 25.8672H166.324C166.315 25.1107 166.187 24.4408 165.941 23.8574C165.704 23.2741 165.34 22.8184 164.847 22.4902C164.364 22.1621 163.745 21.998 162.988 21.998ZM178.801 19.5781C179.057 19.5781 179.335 19.5918 179.635 19.6191C179.936 19.6465 180.196 19.6829 180.415 19.7285L180.114 22.7363C179.923 22.6816 179.686 22.6406 179.403 22.6133C179.13 22.5859 178.884 22.5723 178.665 22.5723C178.091 22.5723 177.544 22.668 177.024 22.8594C176.505 23.0417 176.044 23.3242 175.643 23.707C175.242 24.0807 174.928 24.5501 174.7 25.1152C174.472 25.6803 174.358 26.3366 174.358 27.084V35H171.132V19.8652H173.647L174.085 22.5312H174.235C174.536 21.9935 174.91 21.5013 175.356 21.0547C175.803 20.6081 176.313 20.2526 176.887 19.9883C177.471 19.7148 178.109 19.5781 178.801 19.5781ZM187.287 19.5781C188.636 19.5781 189.793 19.8561 190.759 20.4121C191.726 20.9681 192.468 21.7565 192.988 22.7773C193.507 23.7982 193.767 25.0195 193.767 26.4414V28.1641H183.664C183.7 29.6315 184.092 30.7617 184.84 31.5547C185.596 32.3477 186.653 32.7441 188.011 32.7441C188.978 32.7441 189.843 32.653 190.609 32.4707C191.384 32.2793 192.181 32.0013 193.002 31.6367V34.248C192.245 34.6035 191.475 34.8633 190.691 35.0273C189.907 35.1914 188.968 35.2734 187.875 35.2734C186.389 35.2734 185.081 34.9863 183.951 34.4121C182.83 33.8288 181.95 32.9629 181.312 31.8145C180.683 30.666 180.369 29.2396 180.369 27.5352C180.369 25.8398 180.656 24.3997 181.23 23.2148C181.804 22.0299 182.611 21.1276 183.65 20.5078C184.689 19.888 185.901 19.5781 187.287 19.5781ZM187.287 21.998C186.275 21.998 185.455 22.3262 184.826 22.9824C184.206 23.6387 183.841 24.6003 183.732 25.8672H190.623C190.614 25.1107 190.486 24.4408 190.24 23.8574C190.003 23.2741 189.638 22.8184 189.146 22.4902C188.663 22.1621 188.043 21.998 187.287 21.998Z" fill="black"/>
</svg>
