<svg width="297" height="306" viewBox="0 0 297 306" fill="none" xmlns="http://www.w3.org/2000/svg">
<rect width="297" height="306" rx="78" fill="#EA580C"/>
<mask id="mask0_98_8" style="mask-type:luminance" maskUnits="userSpaceOnUse" x="41" y="82" width="223" height="143">
<path d="M41.7353 82H263.029V224.852H41.7353V82Z" fill="white"/>
</mask>
<g mask="url(#mask0_98_8)">
<path d="M155.284 114.991L151.937 117.163L162.891 93.8296C166.292 86.5886 173.335 82 181.043 82C188.82 82 195.903 86.6656 199.273 94.0032L242.62 188.151C243.369 189.785 244.576 191.14 246.082 192.039C248.795 193.658 252.137 193.591 254.791 191.871L258.137 189.699L247.183 213.031C243.782 220.273 236.744 224.862 229.032 224.862C221.255 224.862 214.17 220.196 210.801 212.859L167.454 118.71C166.705 117.076 165.498 115.722 163.992 114.823C161.279 113.204 157.937 113.271 155.284 114.991ZM84.653 114.823C86.159 115.722 87.3667 117.076 88.115 118.71L131.462 212.859C134.827 220.196 141.915 224.862 149.692 224.862C157.4 224.862 164.442 220.273 167.844 213.031L178.798 189.699L175.451 191.871C172.797 193.596 169.456 193.658 166.742 192.039C165.237 191.14 164.029 189.785 163.281 188.151L119.934 94.0032C116.564 86.6656 109.481 82 101.704 82C93.9959 82 86.9535 86.5886 83.5513 93.8296L72.5978 117.163L75.9445 114.991C78.5976 113.271 81.94 113.204 84.653 114.823ZM37.9737 199.847L43.9642 212.864C47.3296 220.201 54.4181 224.866 62.1951 224.866C69.9029 224.866 76.9452 220.278 80.3467 213.037L91.3009 189.703L87.9542 191.875C85.3004 193.6 81.9587 193.663 79.245 192.043C77.7397 191.145 76.5321 189.79 75.7837 188.157L66.4783 167.946C62.9153 160.21 52.4073 160.167 48.7896 167.875L38.0098 190.833C36.6738 193.673 36.6652 196.997 37.9737 199.847Z" fill="white"/>
</g>
</svg>