<svg xmlns="http://www.w3.org/2000/svg" xmlns:xlink="http://www.w3.org/1999/xlink" width="2000" zoomAndPan="magnify" viewBox="0 0 1500 1499.999933" height="2000" preserveAspectRatio="xMidYMid meet" version="1.0"><defs><clipPath id="e4595892dd"><path d="M 60 0 L 1440 0 C 1455.914062 0 1471.175781 6.320312 1482.425781 17.574219 C 1493.679688 28.824219 1500 44.085938 1500 60 L 1500 1440 C 1500 1455.914062 1493.679688 1471.175781 1482.425781 1482.425781 C 1471.175781 1493.679688 1455.914062 1500 1440 1500 L 60 1500 C 26.863281 1500 0 1473.136719 0 1440 L 0 60 C 0 26.863281 26.863281 0 60 0 Z M 60 0 " clip-rule="nonzero"/></clipPath><clipPath id="9af6cb67a1"><path d="M 0 0 L 1500 0 L 1500 1500 L 0 1500 Z M 0 0 " clip-rule="nonzero"/></clipPath><clipPath id="815fff3fff"><path d="M 60 0 L 1440 0 C 1455.914062 0 1471.175781 6.320312 1482.425781 17.574219 C 1493.679688 28.824219 1500 44.085938 1500 60 L 1500 1440 C 1500 1455.914062 1493.679688 1471.175781 1482.425781 1482.425781 C 1471.175781 1493.679688 1455.914062 1500 1440 1500 L 60 1500 C 26.863281 1500 0 1473.136719 0 1440 L 0 60 C 0 26.863281 26.863281 0 60 0 Z M 60 0 " clip-rule="nonzero"/></clipPath><clipPath id="b4117d64bc"><rect x="0" width="1500" y="0" height="1500"/></clipPath><clipPath id="13dffee04f"><path d="M 182.308594 188.132812 L 1317.808594 188.132812 L 1317.808594 1311.632812 L 182.308594 1311.632812 Z M 182.308594 188.132812 " clip-rule="nonzero"/></clipPath><clipPath id="0a92a09cb1"><path d="M 771.371094 728.519531 L 1264.1875 728.519531 L 1264.1875 1213.691406 L 771.371094 1213.691406 Z M 771.371094 728.519531 " clip-rule="nonzero"/></clipPath><clipPath id="bac703bc64"><path d="M 0.371094 0.519531 L 493.1875 0.519531 L 493.1875 485.691406 L 0.371094 485.691406 Z M 0.371094 0.519531 " clip-rule="nonzero"/></clipPath><clipPath id="3fbe6a045a"><rect x="0" width="494" y="0" height="486"/></clipPath><clipPath id="b848b31619"><path d="M 805.339844 760.90625 L 1253.148438 760.90625 L 1253.148438 1213.96875 L 805.339844 1213.96875 Z M 805.339844 760.90625 " clip-rule="nonzero"/></clipPath><clipPath id="91607bc11c"><path d="M 815.839844 760.90625 L 1242.648438 760.90625 C 1245.433594 760.90625 1248.105469 762.015625 1250.074219 763.984375 C 1252.042969 765.953125 1253.148438 768.621094 1253.148438 771.40625 L 1253.148438 1203.191406 C 1253.148438 1205.976562 1252.042969 1208.648438 1250.074219 1210.617188 C 1248.105469 1212.585938 1245.433594 1213.691406 1242.648438 1213.691406 L 815.839844 1213.691406 C 813.054688 1213.691406 810.382812 1212.585938 808.414062 1210.617188 C 806.445312 1208.648438 805.339844 1205.976562 805.339844 1203.191406 L 805.339844 771.40625 C 805.339844 768.621094 806.445312 765.953125 808.414062 763.984375 C 810.382812 762.015625 813.054688 760.90625 815.839844 760.90625 Z M 815.839844 760.90625 " clip-rule="nonzero"/></clipPath><clipPath id="eebe7aacdd"><path d="M 0.339844 0.90625 L 448.148438 0.90625 L 448.148438 453.917969 L 0.339844 453.917969 Z M 0.339844 0.90625 " clip-rule="nonzero"/></clipPath><clipPath id="46b50470a7"><path d="M 10.839844 0.90625 L 437.648438 0.90625 C 440.433594 0.90625 443.105469 2.015625 445.074219 3.984375 C 447.042969 5.953125 448.148438 8.621094 448.148438 11.40625 L 448.148438 443.191406 C 448.148438 445.976562 447.042969 448.648438 445.074219 450.617188 C 443.105469 452.585938 440.433594 453.691406 437.648438 453.691406 L 10.839844 453.691406 C 8.054688 453.691406 5.382812 452.585938 3.414062 450.617188 C 1.445312 448.648438 0.339844 445.976562 0.339844 443.191406 L 0.339844 11.40625 C 0.339844 8.621094 1.445312 5.953125 3.414062 3.984375 C 5.382812 2.015625 8.054688 0.90625 10.839844 0.90625 Z M 10.839844 0.90625 " clip-rule="nonzero"/></clipPath><clipPath id="03af8e4228"><rect x="0" width="449" y="0" height="454"/></clipPath><clipPath id="1f58912c58"><path d="M 879.144531 823.960938 L 959.953125 823.960938 L 959.953125 1150.640625 L 879.144531 1150.640625 Z M 879.144531 823.960938 " clip-rule="nonzero"/></clipPath><clipPath id="e4b9c66d84"><path d="M 0.144531 0.960938 L 80.953125 0.960938 L 80.953125 327.640625 L 0.144531 327.640625 Z M 0.144531 0.960938 " clip-rule="nonzero"/></clipPath><clipPath id="236ffb6cca"><rect x="0" width="81" y="0" height="328"/></clipPath><clipPath id="c53584e199"><path d="M 879.140625 823.960938 L 1179.339844 823.960938 L 1179.339844 904.847656 L 879.140625 904.847656 Z M 879.140625 823.960938 " clip-rule="nonzero"/></clipPath><clipPath id="f940bf99fe"><path d="M 0.140625 0.960938 L 300.339844 0.960938 L 300.339844 81.847656 L 0.140625 81.847656 Z M 0.140625 0.960938 " clip-rule="nonzero"/></clipPath><clipPath id="07d20fb3e5"><rect x="0" width="301" y="0" height="82"/></clipPath><clipPath id="f72f307b26"><path d="M 984.835938 823.960938 L 1065.722656 823.960938 L 1065.722656 1150.628906 L 984.835938 1150.628906 Z M 984.835938 823.960938 " clip-rule="nonzero"/></clipPath><clipPath id="e1c3df970e"><path d="M 0.835938 0.960938 L 81.722656 0.960938 L 81.722656 327.628906 L 0.835938 327.628906 Z M 0.835938 0.960938 " clip-rule="nonzero"/></clipPath><clipPath id="99da3e5a98"><rect x="0" width="82" y="0" height="328"/></clipPath><clipPath id="7a84117d08"><path d="M 1098.457031 823.960938 L 1179.34375 823.960938 L 1179.34375 1150.628906 L 1098.457031 1150.628906 Z M 1098.457031 823.960938 " clip-rule="nonzero"/></clipPath><clipPath id="16336d5df3"><path d="M 0.457031 0.960938 L 81.34375 0.960938 L 81.34375 327.628906 L 0.457031 327.628906 Z M 0.457031 0.960938 " clip-rule="nonzero"/></clipPath><clipPath id="5a60f93b63"><rect x="0" width="82" y="0" height="328"/></clipPath></defs><g clip-path="url(#e4595892dd)"><g transform="matrix(1, 0, 0, 1, 0, 0.000000000000112861)"><g clip-path="url(#b4117d64bc)"><g clip-path="url(#9af6cb67a1)"><g clip-path="url(#815fff3fff)"><rect x="-330" width="2160" fill="#000000" height="2159.999904" y="-329.999985" fill-opacity="1"/></g></g></g></g></g><g clip-path="url(#13dffee04f)"><path fill="#000000" d="M -114.390625 264.609375 C -97.253906 38.375 81.234375 -140.109375 307.464844 -157.246094 C 460.152344 -168.808594 632 -178.761719 771.21875 -178.761719 C 910.4375 -178.761719 1082.285156 -168.808594 1234.972656 -157.246094 C 1461.207031 -140.109375 1639.695312 38.375 1656.828125 264.609375 C 1668.390625 417.296875 1678.34375 589.144531 1678.34375 728.363281 C 1678.34375 867.582031 1668.390625 1039.429688 1656.828125 1192.113281 C 1639.695312 1418.351562 1461.207031 1596.839844 1234.972656 1613.96875 C 1082.285156 1625.535156 910.4375 1635.488281 771.21875 1635.488281 C 632 1635.488281 460.152344 1625.535156 307.464844 1613.96875 C 81.234375 1596.839844 -97.253906 1418.351562 -114.390625 1192.113281 C -125.953125 1039.429688 -135.90625 867.582031 -135.90625 728.363281 C -135.90625 589.144531 -125.953125 417.296875 -114.390625 264.609375 Z M -114.390625 264.609375 " fill-opacity="1" fill-rule="nonzero"/></g><path fill="#ffffff" d="M 287.417969 278.316406 C 287.417969 259.675781 302.53125 244.5625 321.171875 244.5625 L 703.710938 244.5625 C 722.355469 244.5625 737.46875 259.675781 737.46875 278.316406 L 737.46875 660.855469 C 737.46875 679.5 722.355469 694.613281 703.710938 694.613281 L 321.171875 694.613281 C 302.53125 694.613281 287.417969 679.5 287.417969 660.855469 L 287.417969 593.347656 C 287.417969 574.707031 302.53125 559.59375 321.171875 559.59375 C 339.8125 559.59375 354.925781 574.707031 354.925781 593.347656 L 354.925781 627.101562 L 669.960938 627.101562 L 669.960938 312.070312 L 354.925781 312.070312 L 354.925781 413.332031 C 354.925781 431.96875 339.8125 447.082031 321.171875 447.082031 C 302.53125 447.082031 287.417969 431.96875 287.417969 413.332031 Z M 287.417969 278.316406 " fill-opacity="1" fill-rule="evenodd"/><path fill="#ffffff" d="M 287.417969 795.871094 C 287.417969 777.226562 302.53125 762.113281 321.171875 762.113281 L 703.710938 762.113281 C 722.355469 762.113281 737.46875 777.226562 737.46875 795.871094 L 737.46875 1178.410156 C 737.46875 1197.050781 722.355469 1212.164062 703.710938 1212.164062 L 321.171875 1212.164062 C 302.53125 1212.164062 287.417969 1197.050781 287.417969 1178.410156 Z M 354.925781 829.621094 L 354.925781 1144.652344 L 669.960938 1144.652344 L 669.960938 829.621094 Z M 354.925781 829.621094 " fill-opacity="1" fill-rule="evenodd"/><path fill="#ffffff" d="M 399.921875 390.828125 C 399.921875 372.1875 415.035156 357.074219 433.675781 357.074219 L 591.191406 357.074219 C 609.835938 357.074219 624.949219 372.1875 624.949219 390.828125 L 624.949219 548.347656 C 624.949219 566.984375 609.835938 582.097656 591.191406 582.097656 L 433.675781 582.097656 C 415.035156 582.097656 399.921875 566.984375 399.921875 548.347656 Z M 467.429688 424.578125 L 467.429688 514.589844 L 557.441406 514.589844 L 557.441406 424.578125 Z M 467.429688 424.578125 " fill-opacity="1" fill-rule="evenodd"/><path fill="#ffffff" d="M 399.921875 908.378906 C 399.921875 889.738281 415.035156 874.628906 433.675781 874.628906 L 591.191406 874.628906 C 609.835938 874.628906 624.949219 889.738281 624.949219 908.378906 L 624.949219 1065.898438 C 624.949219 1084.535156 609.835938 1099.648438 591.191406 1099.648438 L 433.675781 1099.648438 C 415.035156 1099.648438 399.921875 1084.535156 399.921875 1065.898438 Z M 467.429688 942.136719 L 467.429688 1032.148438 L 557.441406 1032.148438 L 557.441406 942.136719 Z M 467.429688 942.136719 " fill-opacity="1" fill-rule="evenodd"/><path fill="#ffffff" d="M 917.5 390.828125 C 917.5 372.1875 932.613281 357.074219 951.257812 357.074219 L 1108.773438 357.074219 C 1127.417969 357.074219 1142.527344 372.1875 1142.527344 390.828125 L 1142.527344 548.347656 C 1142.527344 566.984375 1127.417969 582.097656 1108.773438 582.097656 L 951.257812 582.097656 C 932.613281 582.097656 917.5 566.984375 917.5 548.347656 Z M 985.011719 424.578125 L 985.011719 514.589844 L 1075.019531 514.589844 L 1075.019531 424.578125 Z M 985.011719 424.578125 " fill-opacity="1" fill-rule="evenodd"/><path fill="#ffffff" d="M 805 278.316406 C 805 259.675781 820.113281 244.5625 838.75 244.5625 L 1221.292969 244.5625 C 1239.9375 244.5625 1255.050781 259.675781 1255.050781 278.316406 L 1255.050781 660.855469 C 1255.050781 679.5 1239.9375 694.613281 1221.292969 694.613281 L 838.75 694.613281 C 820.113281 694.613281 805 679.5 805 660.855469 Z M 872.507812 312.070312 L 872.507812 627.101562 L 1187.539062 627.101562 L 1187.539062 312.070312 Z M 872.507812 312.070312 " fill-opacity="1" fill-rule="evenodd"/><path fill="#ffffff" d="M 782.496094 795.871094 C 782.496094 777.226562 797.609375 762.113281 816.253906 762.113281 L 1221.292969 762.113281 C 1239.9375 762.113281 1255.050781 777.226562 1255.050781 795.871094 C 1255.050781 814.507812 1239.9375 829.621094 1221.292969 829.621094 L 816.253906 829.621094 C 797.609375 829.621094 782.496094 814.507812 782.496094 795.871094 Z M 782.496094 795.871094 " fill-opacity="1" fill-rule="evenodd"/><path fill="#ffffff" d="M 917.5 953.382812 C 917.5 934.746094 932.613281 919.632812 951.257812 919.632812 L 1086.269531 919.632812 C 1104.914062 919.632812 1120.027344 934.746094 1120.027344 953.382812 C 1120.027344 972.027344 1104.914062 987.140625 1086.269531 987.140625 L 951.257812 987.140625 C 932.613281 987.140625 917.5 972.027344 917.5 953.382812 Z M 917.5 953.382812 " fill-opacity="1" fill-rule="evenodd"/><path fill="#ffffff" d="M 782.496094 1133.40625 C 782.496094 1114.761719 797.609375 1099.648438 816.253906 1099.648438 L 951.265625 1099.648438 C 969.910156 1099.648438 985.023438 1114.761719 985.023438 1133.40625 C 985.023438 1152.042969 969.910156 1167.15625 951.265625 1167.15625 L 816.253906 1167.15625 C 797.609375 1167.15625 782.496094 1152.042969 782.496094 1133.40625 Z M 782.496094 1133.40625 " fill-opacity="1" fill-rule="evenodd"/><path fill="#ffffff" d="M 1052.511719 1133.40625 C 1052.511719 1114.761719 1067.625 1099.648438 1086.261719 1099.648438 L 1221.28125 1099.648438 C 1239.917969 1099.648438 1255.03125 1114.761719 1255.03125 1133.40625 C 1255.03125 1152.042969 1239.917969 1167.15625 1221.28125 1167.15625 L 1086.261719 1167.15625 C 1067.625 1167.15625 1052.511719 1152.042969 1052.511719 1133.40625 Z M 1052.511719 1133.40625 " fill-opacity="1" fill-rule="evenodd"/><g clip-path="url(#0a92a09cb1)"><g transform="matrix(1, 0, 0, 1, 771, 728)"><g clip-path="url(#3fbe6a045a)"><g clip-path="url(#bac703bc64)"><path fill="#000000" d="M 0.371094 0.519531 L 493.125 0.519531 L 493.125 485.691406 L 0.371094 485.691406 Z M 0.371094 0.519531 " fill-opacity="1" fill-rule="nonzero"/></g></g></g></g><g clip-path="url(#b848b31619)"><g clip-path="url(#91607bc11c)"><g transform="matrix(1, 0, 0, 1, 805, 760)"><g clip-path="url(#03af8e4228)"><g clip-path="url(#eebe7aacdd)"><g clip-path="url(#46b50470a7)"><path fill="#ffffff" d="M 0.339844 0.90625 L 448.148438 0.90625 L 448.148438 453.96875 L 0.339844 453.96875 Z M 0.339844 0.90625 " fill-opacity="1" fill-rule="nonzero"/></g></g></g></g></g></g><g clip-path="url(#1f58912c58)"><g transform="matrix(1, 0, 0, 1, 879, 823)"><g clip-path="url(#236ffb6cca)"><g clip-path="url(#e4b9c66d84)"><path fill="#000000" d="M 0.144531 0.960938 L 80.953125 0.960938 L 80.953125 327.679688 L 0.144531 327.679688 Z M 0.144531 0.960938 " fill-opacity="1" fill-rule="nonzero"/></g></g></g></g><g clip-path="url(#c53584e199)"><g transform="matrix(1, 0, 0, 1, 879, 823)"><g clip-path="url(#07d20fb3e5)"><g clip-path="url(#f940bf99fe)"><path fill="#000000" d="M 300.339844 0.960938 L 300.339844 81.847656 L 0.171875 81.847656 L 0.171875 0.960938 Z M 300.339844 0.960938 " fill-opacity="1" fill-rule="nonzero"/></g></g></g></g><g clip-path="url(#f72f307b26)"><g transform="matrix(1, 0, 0, 1, 984, 823)"><g clip-path="url(#99da3e5a98)"><g clip-path="url(#e1c3df970e)"><path fill="#000000" d="M 0.835938 0.960938 L 81.722656 0.960938 L 81.722656 327.671875 L 0.835938 327.671875 Z M 0.835938 0.960938 " fill-opacity="1" fill-rule="nonzero"/></g></g></g></g><g clip-path="url(#7a84117d08)"><g transform="matrix(1, 0, 0, 1, 1098, 823)"><g clip-path="url(#5a60f93b63)"><g clip-path="url(#16336d5df3)"><path fill="#000000" d="M 0.457031 0.960938 L 81.34375 0.960938 L 81.34375 327.671875 L 0.457031 327.671875 Z M 0.457031 0.960938 " fill-opacity="1" fill-rule="nonzero"/></g></g></g></g></svg>