<svg width="201" height="46" viewBox="0 0 201 46" fill="none" xmlns="http://www.w3.org/2000/svg">
<rect width="46" height="46" rx="10" fill="#A64E2A"/>
<path d="M21 4H26V7.5C26 8.33333 26.4 10.2 28 11C30 12 32 14.5 32.5 16V41.5H28V18.5H25.5V37.3246H21V18.5H18.5V32.5H14V16C14.1667 15 15.2 12.7 18 11.5C18.6667 11.1667 20.2 9.9 21 7.5V4Z" fill="white"/>
<path d="M62.408 33V13.12H66.552L72.46 29.444L78.368 13.12H82.512V33H79.488V18.44L74.14 32.972H70.78L65.432 18.44V33H62.408ZM92.8687 33.336C91.4127 33.336 90.1527 33.0187 89.0887 32.384C88.0434 31.7493 87.2314 30.844 86.6527 29.668C86.0927 28.492 85.8127 27.12 85.8127 25.552C85.8127 23.984 86.0927 22.6213 86.6527 21.464C87.2314 20.288 88.0434 19.3827 89.0887 18.748C90.1341 18.0947 91.3661 17.768 92.7847 17.768C94.1287 17.768 95.3141 18.0853 96.3407 18.72C97.3674 19.336 98.1607 20.232 98.7207 21.408C99.2994 22.584 99.5887 24.0027 99.5887 25.664V26.42H88.8927C88.9674 27.876 89.3501 28.968 90.0407 29.696C90.7501 30.424 91.7021 30.788 92.8967 30.788C93.7741 30.788 94.5021 30.5827 95.0807 30.172C95.6594 29.7613 96.0607 29.2107 96.2847 28.52L99.3647 28.716C98.9727 30.0973 98.1981 31.2173 97.0407 32.076C95.9021 32.916 94.5114 33.336 92.8687 33.336ZM88.8927 24.18H96.4527C96.3594 22.8547 95.9767 21.8747 95.3047 21.24C94.6514 20.6053 93.8114 20.288 92.7847 20.288C91.7207 20.288 90.8434 20.624 90.1527 21.296C89.4807 21.9493 89.0607 22.9107 88.8927 24.18ZM102.596 33V18.104H105.312L105.424 22.08L105.06 21.884C105.228 20.9133 105.545 20.1293 106.012 19.532C106.479 18.9347 107.048 18.496 107.72 18.216C108.392 17.9173 109.12 17.768 109.904 17.768C111.024 17.768 111.948 18.02 112.676 18.524C113.423 19.0093 113.983 19.6813 114.356 20.54C114.748 21.38 114.944 22.3413 114.944 23.424V33H111.976V24.32C111.976 23.4427 111.883 22.7053 111.696 22.108C111.509 21.5107 111.201 21.0533 110.772 20.736C110.343 20.4187 109.783 20.26 109.092 20.26C108.047 20.26 107.197 20.6053 106.544 21.296C105.891 21.9867 105.564 22.9947 105.564 24.32V33H102.596ZM123.656 33.336C122.163 33.336 120.968 32.8413 120.072 31.852C119.195 30.844 118.756 29.4533 118.756 27.68V18.104H121.724V26.924C121.724 28.268 121.958 29.2573 122.424 29.892C122.891 30.5267 123.6 30.844 124.552 30.844C125.635 30.844 126.475 30.4987 127.072 29.808C127.688 29.0987 127.996 28.1093 127.996 26.84V18.104H130.964V33H128.192L128.136 29.108L128.556 29.276C128.295 30.5827 127.744 31.5907 126.904 32.3C126.064 32.9907 124.982 33.336 123.656 33.336ZM140.136 33C138.718 33 137.672 32.6733 137 32.02C136.328 31.3667 135.992 30.3493 135.992 28.968V14.604H138.96V28.744C138.96 29.4347 139.11 29.9107 139.408 30.172C139.707 30.4333 140.164 30.564 140.78 30.564H142.908V33H140.136ZM133.724 20.54V18.104H142.908V20.54H133.724ZM145.745 33V13.12H148.713V21.464L148.349 21.408C148.517 20.568 148.825 19.8867 149.273 19.364C149.721 18.8227 150.271 18.4213 150.925 18.16C151.578 17.8987 152.297 17.768 153.081 17.768C154.163 17.768 155.078 18.0107 155.825 18.496C156.571 18.9627 157.131 19.6253 157.505 20.484C157.897 21.3427 158.093 22.3227 158.093 23.424V33H155.125V24.208C155.125 22.864 154.891 21.8747 154.425 21.24C153.977 20.5867 153.267 20.26 152.297 20.26C151.214 20.26 150.346 20.6053 149.693 21.296C149.039 21.968 148.713 22.9573 148.713 24.264V33H145.745ZM168.091 33.336C166.635 33.336 165.375 33.0187 164.311 32.384C163.266 31.7493 162.454 30.844 161.875 29.668C161.315 28.492 161.035 27.12 161.035 25.552C161.035 23.984 161.315 22.6213 161.875 21.464C162.454 20.288 163.266 19.3827 164.311 18.748C165.357 18.0947 166.589 17.768 168.007 17.768C169.351 17.768 170.537 18.0853 171.563 18.72C172.59 19.336 173.383 20.232 173.943 21.408C174.522 22.584 174.811 24.0027 174.811 25.664V26.42H164.115C164.19 27.876 164.573 28.968 165.263 29.696C165.973 30.424 166.925 30.788 168.119 30.788C168.997 30.788 169.725 30.5827 170.303 30.172C170.882 29.7613 171.283 29.2107 171.507 28.52L174.587 28.716C174.195 30.0973 173.421 31.2173 172.263 32.076C171.125 32.916 169.734 33.336 168.091 33.336ZM164.115 24.18H171.675C171.582 22.8547 171.199 21.8747 170.527 21.24C169.874 20.6053 169.034 20.288 168.007 20.288C166.943 20.288 166.066 20.624 165.375 21.296C164.703 21.9493 164.283 22.9107 164.115 24.18ZM177.819 33V18.104H180.535L180.647 22.052L180.395 21.968C180.6 20.624 181.011 19.644 181.627 19.028C182.261 18.412 183.111 18.104 184.175 18.104H185.603V20.764H184.175C183.428 20.764 182.803 20.8853 182.299 21.128C181.795 21.3707 181.412 21.744 181.151 22.248C180.908 22.752 180.787 23.4053 180.787 24.208V33H177.819ZM193.849 33.336C192.393 33.336 191.133 33.0187 190.069 32.384C189.024 31.7493 188.212 30.844 187.633 29.668C187.073 28.492 186.793 27.12 186.793 25.552C186.793 23.984 187.073 22.6213 187.633 21.464C188.212 20.288 189.024 19.3827 190.069 18.748C191.115 18.0947 192.347 17.768 193.765 17.768C195.109 17.768 196.295 18.0853 197.321 18.72C198.348 19.336 199.141 20.232 199.701 21.408C200.28 22.584 200.569 24.0027 200.569 25.664V26.42H189.873C189.948 27.876 190.331 28.968 191.021 29.696C191.731 30.424 192.683 30.788 193.877 30.788C194.755 30.788 195.483 30.5827 196.061 30.172C196.64 29.7613 197.041 29.2107 197.265 28.52L200.345 28.716C199.953 30.0973 199.179 31.2173 198.021 32.076C196.883 32.916 195.492 33.336 193.849 33.336ZM189.873 24.18H197.433C197.34 22.8547 196.957 21.8747 196.285 21.24C195.632 20.6053 194.792 20.288 193.765 20.288C192.701 20.288 191.824 20.624 191.133 21.296C190.461 21.9493 190.041 22.9107 189.873 24.18Z" fill="black"/>
</svg>
