<svg width="266" height="68" viewBox="0 0 266 68" fill="none" xmlns="http://www.w3.org/2000/svg">
<g clip-path="url(#clip0_79_142)">
<rect x="3" y="4" width="60" height="60" rx="10" fill="#EA580C"/>
<rect x="13.4352" y="13.0344" width="39.1229" height="9.78074" fill="white"/>
<rect x="38.5461" y="21.5699" width="33.4029" height="11.1416" transform="rotate(89.8598 38.5461 21.5699)" fill="white"/>
<rect x="52.5186" y="21.4916" width="33.4811" height="11.1416" transform="rotate(89.8598 52.5186 21.4916)" fill="white"/>
<rect x="24.5736" y="21.5711" width="33.4017" height="11.1416" transform="rotate(89.8598 24.5736 21.5711)" fill="white"/>
<path d="M105.297 51H100V25.5938L91.7031 51H86.5938L78.3438 25.6875V51H73.0938V20.8594H81.9531L89.1719 43.5L96.3906 20.7656H105.297V51ZM120.874 38.25C120.874 34.625 119.437 32.8125 116.562 32.8125C113.749 32.8125 112.265 34.625 112.109 38.25H120.874ZM125.843 44.4844C125.562 46.7031 124.64 48.4375 123.077 49.6875C121.546 50.9375 119.359 51.5625 116.515 51.5625C113.202 51.5625 110.781 50.5312 109.249 48.4688C107.718 46.375 106.952 43.7656 106.952 40.6406C106.952 37.3906 107.781 34.7344 109.437 32.6719C111.093 30.6094 113.562 29.5781 116.843 29.5781C118.562 29.5781 120.062 29.8906 121.343 30.5156C122.624 31.1094 123.593 31.9219 124.249 32.9531C124.937 33.9844 125.421 35.0625 125.702 36.1875C126.015 37.3125 126.171 38.5156 126.171 39.7969C126.171 40.2031 126.14 40.7812 126.077 41.5312H112.109C112.14 43.75 112.484 45.4375 113.14 46.5938C113.796 47.75 114.968 48.3281 116.656 48.3281C119.031 48.3281 120.39 47.0469 120.734 44.4844H125.843ZM146.155 51H141.139V38.0625C141.139 36.375 140.764 35.0625 140.014 34.125C139.264 33.1562 138.233 32.6719 136.921 32.6719C135.514 32.6719 134.358 33.2344 133.452 34.3594C132.577 35.4844 132.139 36.9844 132.139 38.8594V51H127.124V30.1406H132.139V32.7656C132.921 31.6094 133.811 30.7969 134.811 30.3281C135.842 29.8281 137.171 29.5781 138.796 29.5781C141.233 29.5781 143.061 30.2344 144.28 31.5469C145.53 32.8594 146.155 34.6719 146.155 36.9844V51ZM167.732 51H162.67V48.2344C161.92 49.4531 161.045 50.3125 160.045 50.8125C159.045 51.3125 157.717 51.5625 156.061 51.5625C153.654 51.5625 151.826 50.9375 150.576 49.6875C149.326 48.4062 148.701 46.5781 148.701 44.2031V30.1406H153.717V43.0781C153.717 44.7969 154.092 46.125 154.842 47.0625C155.592 48 156.607 48.4688 157.889 48.4688C159.389 48.4688 160.561 47.9531 161.404 46.9219C162.248 45.8594 162.67 44.3438 162.67 42.375V30.1406H167.732V51ZM182.56 50.8594C181.372 51.2969 180.076 51.5156 178.669 51.5156C176.826 51.5156 175.31 51.0312 174.122 50.0625C172.966 49.0938 172.388 47.6719 172.388 45.7969V33.4219H168.357V30.1406H172.388V26.5781L177.404 24.0938V30.1406H182.279V33.4219H177.404V44.7188C177.404 46.9062 178.404 48 180.404 48C181.154 48 181.872 47.875 182.56 47.625V50.8594ZM202.122 51H197.059V38.2969C197.059 34.5781 195.747 32.7188 193.122 32.7188C191.622 32.7188 190.403 33.3281 189.466 34.5469C188.559 35.7344 188.106 36.9531 188.106 38.2031V51H183.091V20.8594H188.106V32.4844C189.575 30.5469 191.825 29.5781 194.856 29.5781C197.294 29.5781 199.106 30.25 200.294 31.5938C201.512 32.9375 202.122 34.8125 202.122 37.2188V51ZM217.418 38.25C217.418 34.625 215.981 32.8125 213.106 32.8125C210.293 32.8125 208.809 34.625 208.652 38.25H217.418ZM222.387 44.4844C222.106 46.7031 221.184 48.4375 219.621 49.6875C218.09 50.9375 215.902 51.5625 213.059 51.5625C209.746 51.5625 207.324 50.5312 205.793 48.4688C204.262 46.375 203.496 43.7656 203.496 40.6406C203.496 37.3906 204.324 34.7344 205.981 32.6719C207.637 30.6094 210.106 29.5781 213.387 29.5781C215.106 29.5781 216.606 29.8906 217.887 30.5156C219.168 31.1094 220.137 31.9219 220.793 32.9531C221.481 33.9844 221.965 35.0625 222.246 36.1875C222.559 37.3125 222.715 38.5156 222.715 39.7969C222.715 40.2031 222.684 40.7812 222.621 41.5312H208.652C208.684 43.75 209.027 45.4375 209.684 46.5938C210.34 47.75 211.512 48.3281 213.199 48.3281C215.574 48.3281 216.934 47.0469 217.277 44.4844H222.387ZM236.371 34.0781C231.496 34.0781 229.058 36.0469 229.058 39.9844V51H224.042V30.1406H229.058V33.2344C229.746 31.9531 230.589 31.0625 231.589 30.5625C232.589 30.0312 234.183 29.7656 236.371 29.7656V34.0781ZM249.651 38.25C249.651 34.625 248.214 32.8125 245.339 32.8125C242.526 32.8125 241.042 34.625 240.886 38.25H249.651ZM254.62 44.4844C254.339 46.7031 253.417 48.4375 251.854 49.6875C250.323 50.9375 248.136 51.5625 245.292 51.5625C241.979 51.5625 239.557 50.5312 238.026 48.4688C236.495 46.375 235.729 43.7656 235.729 40.6406C235.729 37.3906 236.557 34.7344 238.214 32.6719C239.87 30.6094 242.339 29.5781 245.62 29.5781C247.339 29.5781 248.839 29.8906 250.12 30.5156C251.401 31.1094 252.37 31.9219 253.026 32.9531C253.714 33.9844 254.198 35.0625 254.479 36.1875C254.792 37.3125 254.948 38.5156 254.948 39.7969C254.948 40.2031 254.917 40.7812 254.854 41.5312H240.886C240.917 43.75 241.261 45.4375 241.917 46.5938C242.573 47.75 243.745 48.3281 245.432 48.3281C247.807 48.3281 249.167 47.0469 249.511 44.4844H254.62Z" fill="black"/>
</g>
<defs>
<clipPath id="clip0_79_142">
<rect width="266" height="68" fill="white"/>
</clipPath>
</defs>
</svg>

