<svg width="213" height="54" viewBox="0 0 213 54" fill="none" xmlns="http://www.w3.org/2000/svg">
<rect x="3" y="4" width="46" height="46" rx="10" fill="white"/>
<rect x="12.0022" y="12" width="28" height="7" fill="#EA580C"/>
<rect x="29.9739" y="18.1088" width="23.9062" height="7.97399" transform="rotate(89.8598 29.9739 18.1088)" fill="#EA580C"/>
<rect x="39.9739" y="18.0527" width="23.9622" height="7.97399" transform="rotate(89.8598 39.9739 18.0527)" fill="#EA580C"/>
<rect x="19.9739" y="18.1096" width="23.9053" height="7.97399" transform="rotate(89.8598 19.9739 18.1096)" fill="#EA580C"/>
<path d="M85.4141 43H81V21.8281L74.0859 43H69.8281L62.9531 21.9062V43H58.5781V17.8828H65.9609L71.9766 36.75L77.9922 17.8047H85.4141V43ZM98.3953 32.375C98.3953 29.3542 97.1974 27.8438 94.8016 27.8438C92.4578 27.8438 91.2208 29.3542 91.0906 32.375H98.3953ZM102.536 37.5703C102.302 39.4193 101.533 40.8646 100.231 41.9062C98.9552 42.9479 97.1323 43.4688 94.7625 43.4688C92.0021 43.4688 89.9839 42.6094 88.7078 40.8906C87.4318 39.1458 86.7938 36.9714 86.7938 34.3672C86.7938 31.6589 87.4839 29.4453 88.8641 27.7266C90.2443 26.0078 92.3016 25.1484 95.0359 25.1484C96.4682 25.1484 97.7182 25.4089 98.7859 25.9297C99.8536 26.4245 100.661 27.1016 101.208 27.9609C101.781 28.8203 102.184 29.7188 102.419 30.6562C102.679 31.5938 102.809 32.5964 102.809 33.6641C102.809 34.0026 102.783 34.4844 102.731 35.1094H91.0906C91.1167 36.9583 91.4031 38.3646 91.95 39.3281C92.4969 40.2917 93.4734 40.7734 94.8797 40.7734C96.8589 40.7734 97.9917 39.7057 98.2781 37.5703H102.536ZM119.463 43H115.283V32.2188C115.283 30.8125 114.97 29.7188 114.345 28.9375C113.72 28.1302 112.861 27.7266 111.767 27.7266C110.595 27.7266 109.632 28.1953 108.877 29.1328C108.147 30.0703 107.783 31.3203 107.783 32.8828V43H103.603V25.6172H107.783V27.8047C108.434 26.8411 109.176 26.1641 110.009 25.7734C110.869 25.3568 111.976 25.1484 113.33 25.1484C115.361 25.1484 116.884 25.6953 117.9 26.7891C118.942 27.8828 119.463 29.3932 119.463 31.3203V43ZM137.444 43H133.225V40.6953C132.6 41.7109 131.871 42.4271 131.037 42.8438C130.204 43.2604 129.097 43.4688 127.717 43.4688C125.712 43.4688 124.189 42.9479 123.147 41.9062C122.105 40.8385 121.584 39.3151 121.584 37.3359V25.6172H125.764V36.3984C125.764 37.8307 126.077 38.9375 126.702 39.7188C127.327 40.5 128.173 40.8906 129.241 40.8906C130.491 40.8906 131.467 40.4609 132.17 39.6016C132.873 38.7161 133.225 37.4531 133.225 35.8125V25.6172H137.444V43ZM149.8 42.8828C148.81 43.2474 147.73 43.4297 146.558 43.4297C145.021 43.4297 143.758 43.026 142.769 42.2188C141.805 41.4115 141.323 40.2266 141.323 38.6641V28.3516H137.964V25.6172H141.323V22.6484L145.503 20.5781V25.6172H149.566V28.3516H145.503V37.7656C145.503 39.5885 146.336 40.5 148.003 40.5C148.628 40.5 149.227 40.3958 149.8 40.1875V42.8828ZM166.102 43H161.883V32.4141C161.883 29.3151 160.789 27.7656 158.602 27.7656C157.352 27.7656 156.336 28.2734 155.555 29.2891C154.799 30.2786 154.422 31.2943 154.422 32.3359V43H150.242V17.8828H154.422V27.5703C155.646 25.9557 157.521 25.1484 160.047 25.1484C162.078 25.1484 163.589 25.7083 164.578 26.8281C165.594 27.9479 166.102 29.5104 166.102 31.5156V43ZM178.848 32.375C178.848 29.3542 177.651 27.8438 175.255 27.8438C172.911 27.8438 171.674 29.3542 171.544 32.375H178.848ZM182.989 37.5703C182.755 39.4193 181.986 40.8646 180.684 41.9062C179.408 42.9479 177.585 43.4688 175.216 43.4688C172.455 43.4688 170.437 42.6094 169.161 40.8906C167.885 39.1458 167.247 36.9714 167.247 34.3672C167.247 31.6589 167.937 29.4453 169.317 27.7266C170.697 26.0078 172.755 25.1484 175.489 25.1484C176.921 25.1484 178.171 25.4089 179.239 25.9297C180.307 26.4245 181.114 27.1016 181.661 27.9609C182.234 28.8203 182.637 29.7188 182.872 30.6562C183.132 31.5938 183.262 32.5964 183.262 33.6641C183.262 34.0026 183.236 34.4844 183.184 35.1094H171.544C171.57 36.9583 171.856 38.3646 172.403 39.3281C172.95 40.2917 173.927 40.7734 175.333 40.7734C177.312 40.7734 178.445 39.7057 178.731 37.5703H182.989ZM194.642 28.8984C190.58 28.8984 188.548 30.5391 188.548 33.8203V43H184.369V25.6172H188.548V28.1953C189.121 27.1276 189.824 26.3854 190.658 25.9688C191.491 25.526 192.819 25.3047 194.642 25.3047V28.8984ZM205.709 32.375C205.709 29.3542 204.511 27.8438 202.116 27.8438C199.772 27.8438 198.535 29.3542 198.405 32.375H205.709ZM209.85 37.5703C209.616 39.4193 208.847 40.8646 207.545 41.9062C206.269 42.9479 204.446 43.4688 202.077 43.4688C199.316 43.4688 197.298 42.6094 196.022 40.8906C194.746 39.1458 194.108 36.9714 194.108 34.3672C194.108 31.6589 194.798 29.4453 196.178 27.7266C197.558 26.0078 199.616 25.1484 202.35 25.1484C203.782 25.1484 205.032 25.4089 206.1 25.9297C207.168 26.4245 207.975 27.1016 208.522 27.9609C209.095 28.8203 209.498 29.7188 209.733 30.6562C209.993 31.5938 210.123 32.5964 210.123 33.6641C210.123 34.0026 210.097 34.4844 210.045 35.1094H198.405C198.431 36.9583 198.717 38.3646 199.264 39.3281C199.811 40.2917 200.788 40.7734 202.194 40.7734C204.173 40.7734 205.306 39.7057 205.592 37.5703H209.85Z" fill="white"/>
</svg>
