<svg width="1090" height="306" viewBox="0 0 1090 306" fill="none" xmlns="http://www.w3.org/2000/svg">
<path d="M504.363 219H484.5V123.727L453.387 219H434.227L403.289 124.078V219H383.602V105.973H416.824L443.895 190.875L470.965 105.621H504.363V219ZM564.579 171.188C564.579 157.594 559.188 150.797 548.407 150.797C537.86 150.797 532.294 157.594 531.708 171.188H564.579ZM583.212 194.566C582.157 202.887 578.7 209.391 572.841 214.078C567.098 218.766 558.895 221.109 548.231 221.109C535.809 221.109 526.727 217.242 520.985 209.508C515.243 201.656 512.372 191.871 512.372 180.152C512.372 167.965 515.477 158.004 521.688 150.27C527.899 142.535 537.157 138.668 549.462 138.668C555.907 138.668 561.532 139.84 566.337 142.184C571.141 144.41 574.774 147.457 577.235 151.324C579.813 155.191 581.63 159.234 582.684 163.453C583.856 167.672 584.442 172.184 584.442 176.988C584.442 178.512 584.325 180.68 584.091 183.492H531.708C531.825 191.812 533.114 198.141 535.575 202.477C538.036 206.812 542.43 208.98 548.759 208.98C557.665 208.98 562.762 204.176 564.052 194.566H583.212ZM661.181 219H642.373V170.484C642.373 164.156 640.966 159.234 638.154 155.719C635.341 152.086 631.474 150.27 626.552 150.27C621.279 150.27 616.943 152.379 613.545 156.598C610.263 160.816 608.623 166.441 608.623 173.473V219H589.814V140.777H608.623V150.621C611.552 146.285 614.892 143.238 618.642 141.48C622.509 139.605 627.49 138.668 633.584 138.668C642.724 138.668 649.58 141.129 654.15 146.051C658.837 150.973 661.181 157.77 661.181 166.441V219ZM743.897 219H724.913V208.629C722.1 213.199 718.819 216.422 715.069 218.297C711.319 220.172 706.338 221.109 700.127 221.109C691.104 221.109 684.248 218.766 679.561 214.078C674.873 209.273 672.53 202.418 672.53 193.512V140.777H691.338V189.293C691.338 195.738 692.745 200.719 695.557 204.234C698.37 207.75 702.178 209.508 706.983 209.508C712.608 209.508 717.002 207.574 720.166 203.707C723.33 199.723 724.913 194.039 724.913 186.656V140.777H743.897V219ZM801.3 218.473C796.847 220.113 791.984 220.934 786.71 220.934C779.796 220.934 774.112 219.117 769.659 215.484C765.323 211.852 763.155 206.52 763.155 199.488V153.082H748.038V140.777H763.155V127.418L781.964 118.102V140.777H800.245V153.082H781.964V195.445C781.964 203.648 785.714 207.75 793.214 207.75C796.027 207.75 798.722 207.281 801.3 206.344V218.473ZM876.457 219H857.473V171.363C857.473 157.418 852.551 150.445 842.707 150.445C837.082 150.445 832.512 152.73 828.996 157.301C825.598 161.754 823.898 166.324 823.898 171.012V219H805.09V105.973H823.898V149.566C829.406 142.301 837.844 138.668 849.211 138.668C858.352 138.668 865.148 141.188 869.602 146.227C874.172 151.266 876.457 158.297 876.457 167.32V219ZM935.618 171.188C935.618 157.594 930.227 150.797 919.446 150.797C908.899 150.797 903.333 157.594 902.747 171.188H935.618ZM954.251 194.566C953.196 202.887 949.739 209.391 943.88 214.078C938.138 218.766 929.934 221.109 919.27 221.109C906.848 221.109 897.766 217.242 892.024 209.508C886.282 201.656 883.411 191.871 883.411 180.152C883.411 167.965 886.516 158.004 892.727 150.27C898.938 142.535 908.196 138.668 920.501 138.668C926.946 138.668 932.571 139.84 937.376 142.184C942.18 144.41 945.813 147.457 948.274 151.324C950.852 155.191 952.669 159.234 953.723 163.453C954.895 167.672 955.481 172.184 955.481 176.988C955.481 178.512 955.364 180.68 955.13 183.492H902.747C902.864 191.812 904.153 198.141 906.614 202.477C909.075 206.812 913.47 208.98 919.798 208.98C928.704 208.98 933.802 204.176 935.091 194.566H954.251ZM1008.49 155.543C990.209 155.543 981.068 162.926 981.068 177.691V219H962.259V140.777H981.068V152.379C983.646 147.574 986.81 144.234 990.56 142.359C994.31 140.367 1000.29 139.371 1008.49 139.371V155.543ZM1060.09 171.188C1060.09 157.594 1054.7 150.797 1043.92 150.797C1033.37 150.797 1027.81 157.594 1027.22 171.188H1060.09ZM1078.72 194.566C1077.67 202.887 1074.21 209.391 1068.35 214.078C1062.61 218.766 1054.41 221.109 1043.74 221.109C1031.32 221.109 1022.24 217.242 1016.5 209.508C1010.76 201.656 1007.89 191.871 1007.89 180.152C1007.89 167.965 1010.99 158.004 1017.2 150.27C1023.41 142.535 1032.67 138.668 1044.97 138.668C1051.42 138.668 1057.05 139.84 1061.85 142.184C1066.65 144.41 1070.29 147.457 1072.75 151.324C1075.33 155.191 1077.14 159.234 1078.2 163.453C1079.37 167.672 1079.96 172.184 1079.96 176.988C1079.96 178.512 1079.84 180.68 1079.6 183.492H1027.22C1027.34 191.812 1028.63 198.141 1031.09 202.477C1033.55 206.812 1037.94 208.98 1044.27 208.98C1053.18 208.98 1058.28 204.176 1059.56 194.566H1078.72Z" fill="white"/>
<rect width="297" height="306" rx="78" fill="white"/>
<mask id="mask0_98_20" style="mask-type:luminance" maskUnits="userSpaceOnUse" x="41" y="82" width="223" height="143">
<path d="M41.7353 82H263.029V224.852H41.7353V82Z" fill="white"/>
</mask>
<g mask="url(#mask0_98_20)">
<path d="M155.284 114.991L151.937 117.163L162.891 93.8296C166.292 86.5886 173.335 82 181.043 82C188.82 82 195.903 86.6656 199.273 94.0032L242.62 188.151C243.369 189.785 244.576 191.14 246.082 192.039C248.795 193.658 252.137 193.591 254.791 191.871L258.137 189.699L247.183 213.031C243.782 220.273 236.744 224.862 229.032 224.862C221.255 224.862 214.17 220.196 210.801 212.859L167.454 118.71C166.705 117.076 165.498 115.722 163.992 114.823C161.279 113.204 157.937 113.271 155.284 114.991ZM84.653 114.823C86.159 115.722 87.3667 117.076 88.115 118.71L131.462 212.859C134.827 220.196 141.915 224.862 149.692 224.862C157.4 224.862 164.442 220.273 167.844 213.031L178.798 189.699L175.451 191.871C172.797 193.596 169.456 193.658 166.742 192.039C165.237 191.14 164.029 189.785 163.281 188.151L119.934 94.0032C116.564 86.6656 109.481 82 101.704 82C93.9959 82 86.9535 86.5886 83.5513 93.8296L72.5978 117.163L75.9445 114.991C78.5976 113.271 81.94 113.204 84.653 114.823ZM37.9737 199.847L43.9642 212.864C47.3296 220.201 54.4181 224.866 62.1951 224.866C69.9029 224.866 76.9452 220.278 80.3467 213.037L91.3009 189.703L87.9542 191.875C85.3004 193.6 81.9587 193.663 79.245 192.043C77.7397 191.145 76.5321 189.79 75.7837 188.157L66.4783 167.946C62.9153 160.21 52.4073 160.167 48.7896 167.875L38.0098 190.833C36.6738 193.673 36.6652 196.997 37.9737 199.847Z" fill="#EA580C"/>
</g>
</svg>